<svg xmlns="http://www.w3.org/2000/svg" viewBox="0 0 640 400" role="img" aria-label="Categorie CSS">
  <defs>
    <linearGradient id="cssBg" x1="0" y1="0" x2="1" y2="1">
      <stop offset="0%" stop-color="#0F172A"/>
      <stop offset="50%" stop-color="#1D4ED8"/>
      <stop offset="100%" stop-color="#38BDF8"/>
    </linearGradient>
    <pattern id="cssDots" width="22" height="22" patternUnits="userSpaceOnUse">
      <circle cx="2" cy="2" r="1.2" fill="rgba(255,255,255,0.16)"/>
    </pattern>
  </defs>
  <rect width="640" height="400" fill="url(#cssBg)"/>
  <rect width="640" height="400" fill="url(#cssDots)"/>
  <rect x="70" y="78" width="500" height="244" rx="22" fill="rgba(255,255,255,0.1)" stroke="rgba(255,255,255,0.22)"/>
  <rect x="104" y="118" width="150" height="164" rx="14" fill="rgba(248,250,252,0.95)"/>
  <rect x="124" y="142" width="110" height="12" rx="4" fill="#0F172A"/>
  <rect x="124" y="168" width="90" height="10" rx="3" fill="#94A3B8"/>
  <rect x="124" y="190" width="100" height="10" rx="3" fill="#CBD5E1"/>
  <rect x="124" y="230" width="78" height="26" rx="8" fill="#2563EB"/>
  <rect x="278" y="118" width="150" height="164" rx="14" fill="rgba(219,234,254,0.95)"/>
  <rect x="298" y="150" width="110" height="10" rx="3" fill="#1E3A8A"/>
  <rect x="298" y="174" width="88" height="10" rx="3" fill="#60A5FA"/>
  <rect x="298" y="198" width="96" height="10" rx="3" fill="#93C5FD"/>
  <rect x="452" y="118" width="92" height="164" rx="14" fill="rgba(15,23,42,0.55)" stroke="rgba(255,255,255,0.25)"/>
  <text x="468" y="210" fill="#fff" font-family="Georgia, serif" font-size="28">{ }</text>
  <text x="88" y="360" fill="rgba(255,255,255,0.92)" font-family="Georgia, serif" font-size="22">Missions CSS</text>
</svg>
